<?xml version="1.0" encoding="utf-8"?>
<!-- Generator: Adobe Illustrator 21.0.0, SVG Export Plug-In . SVG Version: 6.00 Build 0)  -->
<svg version="1.1" id="Layer_1" xmlns="http://www.w3.org/2000/svg" xmlns:xlink="http://www.w3.org/1999/xlink" x="0px" y="0px"
	 viewBox="0 0 1316.6 929.476" enable-background="new 0 0 1316.6 929.476" xml:space="preserve">
<g id="Page-1" display="none">
	<g id="WINNER" display="inline">
		<g id="header">
			<g id="backgroun">
				<g id="graph" transform="translate(0 1)">
					
						<linearGradient id="Path-539_2_" gradientUnits="userSpaceOnUse" x1="3269.4036" y1="-289.9594" x2="3268.5305" y2="-289.1374" gradientTransform="matrix(1440 0 0 654 -4706459 190126.1094)">
						<stop  offset="0" style="stop-color:#4CC7FF;stop-opacity:0.15"/>
						<stop  offset="1" style="stop-color:#2595FF;stop-opacity:0.15"/>
					</linearGradient>
					<path id="Path-539" fill="url(#Path-539_2_)" d="M-123.4,857.476c0,0,96.8-113.6,184.9-109.1s150.7,71.3,216.3,71.3
						s136.3-113.4,210.9-113.4s151.6,103.6,207.5,84.3s144.7-145.7,167.1-188.2s123.7-167.1,253.2-194.8s182.4-83.7,200-133.1v654
						H-123.4V857.476z"/>
					<path id="Path-539_1_" fill="none" stroke="#2595FF" stroke-width="3" d="M-123.4,857.476c0,0,96.8-113.6,184.9-109.1
						s150.7,71.3,216.3,71.3s136.3-113.4,210.9-113.4s151.6,103.6,207.5,84.3s144.7-145.7,167.1-188.2s123.7-167.1,253.2-194.8
						s182.4-83.1,200-133.1"/>
					<g id="graph-dots" transform="translate(167 116)">
						<circle id="Oval-60" fill="#2A689A" stroke="#2595FF" stroke-width="2" cx="-115.4" cy="631.476" r="8"/>
						<circle id="Oval-60_1_" fill="#2E6F9D" stroke="#2595FF" stroke-width="2" cx="113.6" cy="702.476" r="8"/>
						<circle id="Oval-60_2_" fill="#3275A2" stroke="#2595FF" stroke-width="2" cx="316.6" cy="589.476" r="8"/>
						<circle id="Oval-60_3_" fill="#32749A" stroke="#2595FF" stroke-width="2" cx="515.6" cy="677.476" r="8"/>
						<circle id="Oval-60_4_" fill="#347FAA" stroke="#2595FF" stroke-width="2" cx="707.6" cy="467.476" r="8"/>
						<circle id="Oval-60_5_" fill="#34789C" stroke="#2595FF" stroke-width="2" cx="986.6" cy="282.476" r="8"/>
					</g>
				</g>
			</g>
		</g>
	</g>
</g>
<path opacity="0.2" enable-background="new    " d="M651.8,807.176c-0.1-0.1-0.1-0.3-0.2-0.4c0-0.1-0.1-0.2-0.1-0.3
	c-0.1-0.2-0.1-0.3-0.2-0.5c0-0.1-0.1-0.3-0.1-0.4c0-0.2-0.1-0.3-0.1-0.5s-0.1-0.4-0.1-0.6c0-0.2-0.1-0.5-0.1-0.7s0-0.4-0.1-0.6v-1.8
	c0.6-11.3,11.7-30.9,41.5-41.5c6.2-2.2,36.9-15.4,46.5-20.3c8.5-4.4,29.3-26.8,34.6-31.4c0,0,1-1.3,2.8-3.5c0.4-0.6,0.9-1.2,1.4-1.8
	c7.2-8,18-18.6,36.2-40.2h-0.2c-0.1,0-0.2,0.1-0.3,0.1s-0.2,0.1-0.4,0.1c-0.3,0.1-0.5,0.2-0.8,0.3c-0.1,0-0.1,0.1-0.2,0.1
	c-0.2,0.1-0.3,0.1-0.5,0.2c-0.3,0.1-0.5,0.2-0.8,0.4c-0.1,0-0.1,0-0.2,0.1c-0.2,0.1-0.3,0.1-0.5,0.2c-0.3,0.2-0.7,0.4-1,0.6
	c-0.1,0.1-0.2,0.1-0.4,0.2c-0.5,0.3-0.9,0.6-1.4,0.9c-6.9,4.1-14.3,8.6-21.9,12.9H785c-0.1,0.1-0.2,0.1-0.3,0.2
	c-0.7,0.4-1.4,0.8-2,1.1c-0.1,0.1-0.2,0.1-0.3,0.2c-0.1,0-0.1,0.1-0.2,0.1c-0.2,0.1-0.4,0.2-0.6,0.4c-0.5,0.2-0.9,0.5-1.4,0.7
	c-0.1,0.1-0.3,0.2-0.4,0.2l-0.6,0.3l-0.6,0.3c-0.3,0.2-0.6,0.3-0.9,0.5l-0.6,0.3c-0.6,0.3-1.3,0.7-1.9,1c-0.2,0.1-0.5,0.2-0.7,0.4
	c-0.6,0.3-1.2,0.6-1.7,0.9c-0.1,0-0.2,0.1-0.3,0.1l-0.6,0.3c-0.6,0.3-1.1,0.6-1.7,0.8c-0.1,0.1-0.3,0.1-0.4,0.2
	c-0.2,0.1-0.5,0.2-0.7,0.4c-0.4,0.2-0.9,0.4-1.3,0.6c-0.2,0.1-0.5,0.2-0.7,0.3c-0.3,0.1-0.6,0.3-0.8,0.4c-0.3,0.1-0.6,0.3-0.9,0.4
	c-0.3,0.1-0.6,0.3-1,0.4c-0.1,0-0.2,0.1-0.3,0.1l-0.6,0.3c-0.2,0.1-0.4,0.2-0.6,0.2c-0.3,0.1-0.7,0.3-1,0.4
	c-0.4,0.2-0.8,0.3-1.2,0.5c-0.1,0.1-0.3,0.1-0.4,0.2l-0.9,0.3c-0.5,0.2-1,0.4-1.4,0.5h-0.1c-0.3,0.1-0.7,0.2-1,0.4
	c-0.5,0.2-0.9,0.3-1.4,0.5c-0.2,0.1-0.4,0.1-0.6,0.2c-0.3,0.1-0.5,0.2-0.8,0.3s-0.7,0.2-1,0.3l-0.9,0.3c-0.3,0.1-0.5,0.2-0.8,0.2
	c-0.2,0.1-0.4,0.1-0.7,0.2c-0.4,0.1-0.7,0.2-1.1,0.3c-0.3,0.1-0.6,0.2-0.8,0.2c-0.2,0.1-0.4,0.1-0.6,0.1c-0.3,0.1-0.6,0.2-0.9,0.2
	c-0.4,0.1-0.7,0.2-1.1,0.2c-0.2,0-0.4,0.1-0.6,0.1c-0.2,0-0.4,0.1-0.6,0.1c-0.4,0.1-0.8,0.2-1.3,0.2c-0.2,0-0.3,0.1-0.5,0.1
	c-0.3,0-0.5,0.1-0.8,0.1s-0.7,0.1-1,0.1c-0.2,0-0.5,0.1-0.7,0.1c-0.3,0-0.5,0.1-0.8,0.1c-0.2,0-0.5,0-0.7,0.1c-0.3,0-0.6,0-1,0.1
	c-0.5,0-0.9,0-1.4,0.1h-3c-0.3,0-0.6,0-0.9-0.1c-0.4,0-0.9-0.1-1.3-0.1h-0.4c0,0-0.4-0.1-0.7-0.1c-0.1,0-0.3-0.1-0.5-0.1
	c-0.3-0.1-0.6-0.1-0.9-0.2c-0.5-0.1-0.9-0.2-1.4-0.3c-0.2-0.1-0.4-0.1-0.6-0.2c-0.7-0.2-1.3-0.4-2-0.6c-0.1-0.1-0.3-0.1-0.4-0.2
	c-0.6-0.3-1.3-0.5-1.9-0.8c0,0-0.1,0-0.1-0.1c-0.7-0.3-1.3-0.7-1.9-1.1c-0.1-0.1-0.2-0.1-0.3-0.2c-0.6-0.4-1.3-0.8-1.9-1.3
	c-0.4-0.3-0.8-0.7-1.2-1l-0.2-0.2c-0.4-0.3-0.7-0.7-1-1l-0.1-0.1l-0.4-0.4c-0.2-0.2-0.3-0.4-0.5-0.5l-0.1-0.1
	c-0.3-0.3-0.5-0.7-0.8-1l-0.1-0.1c-0.5-0.7-0.8-1.4-1.1-2.1c-0.1-0.3-0.3-0.7-0.3-1c-1.3-4.9,2.1-9.2,6.8-12.6
	c6-4.3,13.9-7.1,16.4-7.9c5.4-1.6,37.6-27.8,45.4-32.3c3.3-1.9,7.9-4.2,13.3-6.9l6.2-3.1c8.4-4.3,18.1-9.6,27.6-16.2
	c2.7-1.9,6.2-3.7,10.1-5.5c9.6-4.3,21.9-8.1,31.8-10.8c2.6-0.7,5.1-1.4,7.2-1.9c4.7-1.2,9.6-1.9,14.4-2.1c5.8-0.3,11.7,0.2,17.4,1.4
	c-0.6-6.1,0.6-11.3,3.8-15.1l12.9-14.9c-0.7-6.8,0.6-12.5,4.1-16.6c0,0,538.4-559.7,577.1-526.3s-83.9-7,45.3,89.3
	s-463.3,536.4-463.3,536.4c1-0.8,2.2-1.5,3.4-2l574.8-258.5c19.2-8.5,51.7,22.4,72.6,69c12,26.8,17.6,53,16.6,72.1
	c0,0.5-0.1,1.1-0.1,1.6v0.4c-0.2,2.9-0.6,5.7-1.2,8.2c0,0.2-0.1,0.3-0.1,0.5c-0.2,0.7-0.3,1.3-0.5,1.9c-0.1,0.2-0.1,0.4-0.2,0.6
	c-0.2,0.6-0.3,1.1-0.5,1.7c-0.1,0.2-0.1,0.4-0.2,0.6c-0.2,0.5-0.4,1.1-0.6,1.6c-0.1,0.2-0.1,0.4-0.2,0.5l-0.9,1.8c0,0,0,0.1-0.1,0.1
	c-0.3,0.6-0.7,1.2-1.1,1.8c-0.1,0.1-0.2,0.3-0.3,0.4l-0.9,1.2c-0.1,0.2-0.3,0.4-0.4,0.5c-0.3,0.3-0.5,0.6-0.8,0.9l-0.5,0.5
	c-0.3,0.3-0.6,0.5-0.9,0.8c-0.2,0.2-0.4,0.3-0.6,0.5c-0.3,0.2-0.7,0.5-1,0.7c-0.2,0.1-0.3,0.2-0.5,0.3c-0.5,0.3-1,0.6-1.5,0.8h-0.1
	l-574.8,258.5c-5,2.2-10.8,1.8-17.1-0.8l-18,8.1c-0.1,0.1-0.3,0.1-0.4,0.2c-1.5,4.9-3.5,10.9-5.9,17.2c0,0.1,0,0.1-0.1,0.2
	c-0.1,0.3-0.3,0.7-0.4,1c0,0.1-0.1,0.2-0.1,0.3c-0.1,0.3-0.2,0.6-0.4,0.9c-0.1,0.1-0.1,0.3-0.2,0.4c-0.1,0.3-0.2,0.6-0.3,0.8
	c-0.1,0.2-0.1,0.3-0.2,0.5s-0.2,0.5-0.3,0.7c-0.1,0.2-0.2,0.4-0.2,0.6l-0.3,0.6l-0.3,0.6l-0.3,0.6c-0.1,0.2-0.2,0.5-0.3,0.7
	c-0.1,0.2-0.1,0.4-0.2,0.5c-0.1,0.3-0.2,0.6-0.4,0.8c-0.1,0.1-0.1,0.3-0.2,0.4c-0.1,0.3-0.3,0.6-0.4,0.9c0,0.1-0.1,0.2-0.1,0.3
	c-0.1,0.3-0.3,0.6-0.4,1c0,0.1-0.1,0.2-0.1,0.2c-0.1,0.3-0.3,0.6-0.4,0.9c0,0.1-0.1,0.2-0.1,0.3c-0.1,0.3-0.3,0.6-0.4,0.9
	c-0.1,0.1-0.1,0.2-0.2,0.3c-0.1,0.3-0.3,0.6-0.4,0.9c-0.1,0.1-0.1,0.2-0.2,0.3c-0.2,0.3-0.3,0.6-0.5,0.9c0,0.1-0.1,0.2-0.1,0.2
	c-0.2,0.3-0.3,0.6-0.5,0.9c0,0.1-0.1,0.1-0.1,0.2c-0.2,0.3-0.3,0.6-0.5,1c0,0.1-0.1,0.1-0.1,0.2c-0.2,0.3-0.4,0.6-0.5,1
	c0,0,0,0.1-0.1,0.1c-0.2,0.3-0.3,0.6-0.5,0.9c0,0.1-0.1,0.1-0.1,0.2c-0.2,0.3-0.3,0.6-0.5,0.8c0,0.1-0.1,0.1-0.1,0.2
	c-0.2,0.3-0.4,0.6-0.5,0.9c0,0,0,0.1-0.1,0.1c-0.2,0.3-0.3,0.5-0.5,0.8c0,0.1-0.1,0.1-0.1,0.2c-0.2,0.3-0.3,0.5-0.5,0.8
	c0,0.1-0.1,0.1-0.1,0.2l-0.6,0.9c-0.2,0.3-0.4,0.6-0.6,0.8c-0.2,0.3-0.4,0.5-0.6,0.8v0.1c-0.2,0.3-0.4,0.5-0.6,0.8
	c-0.6,0.8-1.3,1.5-2,2.1c-14.6,14.4-25.2,33-33.4,40.6c-0.3,0.3-0.7,0.6-1,0.9c-0.3,0.2-0.6,0.5-0.9,0.7c-9.7,7.5-42,28-44.4,32.9
	c0,0.1-0.1,0.2-0.1,0.3v0.1c0,0.1-0.1,0.2-0.1,0.3v0.1c-0.1,0.1-0.1,0.3-0.2,0.4c-0.6,1.5-1.3,3.7-2.3,6.3v0.1
	c-0.1,0.2-0.1,0.4-0.2,0.6c0,0.1-0.1,0.1-0.1,0.2c-0.2,0.6-0.5,1.2-0.7,1.9c0,0.1-0.1,0.2-0.1,0.2c-0.1,0.2-0.1,0.4-0.2,0.5
	c0,0.1-0.1,0.2-0.1,0.3c-0.1,0.2-0.2,0.4-0.2,0.5s-0.1,0.2-0.1,0.2c-0.2,0.4-0.3,0.8-0.5,1.2c0,0,0,0.1-0.1,0.1
	c-0.1,0.2-0.2,0.4-0.3,0.5c0,0.1-0.1,0.2-0.1,0.3c-0.1,0.2-0.2,0.4-0.3,0.5c0,0.1-0.1,0.2-0.1,0.3c-0.3,0.6-0.6,1.2-1,1.8
	c0,0.1-0.1,0.1-0.1,0.2c-0.1,0.2-0.2,0.4-0.3,0.5c0,0.1-0.1,0.2-0.1,0.2c-0.1,0.2-0.2,0.4-0.3,0.5l-0.1,0.1
	c-0.2,0.4-0.5,0.8-0.8,1.1c-0.1,0.2-0.2,0.3-0.4,0.5c0,0.1-0.1,0.1-0.1,0.2c-0.1,0.2-0.2,0.3-0.4,0.5c0,0.1-0.1,0.1-0.1,0.2
	c-0.4,0.5-0.8,0.9-1.3,1.4l-0.1,0.1c-0.1,0.1-0.3,0.2-0.4,0.4c-0.1,0.1-0.1,0.1-0.2,0.1c-0.1,0.1-0.3,0.2-0.4,0.3l-0.1,0.1l-0.9,0.6
	l-0.1,0.1l-0.1,0.1c-3.8,2.2-8.4,1.3-14-5.7l-0.2-0.2c-0.1-0.1-0.2-0.3-0.4-0.5s-0.3-0.4-0.5-0.6c-0.1-0.1-0.1-0.2-0.2-0.2
	c-0.2-0.3-0.4-0.6-0.7-0.9c-0.3-0.4-0.6-0.9-0.8-1.3c0,0,0-0.1-0.1-0.1c-0.2-0.4-0.5-0.8-0.7-1.2c-0.1-0.1-0.1-0.2-0.2-0.3
	c-0.2-0.3-0.4-0.7-0.6-1c0-0.1-0.1-0.2-0.1-0.3c-0.2-0.4-0.4-0.8-0.5-1.1c-7.5-16.9,0.4-38.1,13.7-57.8c-0.4,0.3-0.8,0.5-1.3,0.8
	c-0.2,0.1-0.4,0.3-0.6,0.4c-0.6,0.4-1.2,0.7-1.7,1.1c-0.2,0.1-0.4,0.3-0.6,0.4c-0.8,0.5-1.5,0.9-2.3,1.4c-0.1,0-0.2,0.1-0.2,0.1
	c-0.7,0.4-1.4,0.8-2,1.2c-0.2,0.1-0.5,0.3-0.7,0.4c-0.6,0.3-1.2,0.7-1.8,1l-0.6,0.3c-0.7,0.4-1.5,0.8-2.2,1.2
	c-0.2,0.1-0.3,0.2-0.5,0.2c-0.6,0.3-1.2,0.6-1.7,0.9l-0.6,0.3l-1.8,0.9c-0.1,0-0.2,0.1-0.3,0.1c-0.7,0.3-1.4,0.6-2,0.9
	c-0.1,0.1-0.3,0.1-0.4,0.2c-0.5,0.2-1.1,0.4-1.6,0.6c-0.1,0-0.3,0.1-0.4,0.1l-1.8,0.6c-5,1.3-11.1,3.1-17.7,5.2
	c-18.7,5.8-41.7,13.4-58.4,17.2c-8.5,1.9-59.1-3.6-67.3-3.4h-2.4c0,0-0.5,0-0.8-0.1h-0.4c-0.2,0-0.4,0-0.6-0.1h-0.4
	c-0.3,0-0.6-0.1-0.9-0.1c-0.2,0-0.3,0-0.5-0.1c-0.2,0-0.5,0-0.7-0.1c-0.2,0-0.3,0-0.5-0.1c-0.3,0-0.7-0.1-1.1-0.1
	c-0.2,0-0.4,0-0.5-0.1c-0.3,0-0.5-0.1-0.8-0.1c-0.2,0-0.3,0-0.5-0.1c-0.4-0.1-0.8-0.1-1.2-0.2c-0.2,0-0.4-0.1-0.6-0.1
	c-0.3,0-0.6-0.1-0.9-0.1c-0.3,0-0.5-0.1-0.8-0.1c-0.3-0.1-0.7-0.1-1-0.2c-0.2,0-0.5-0.1-0.7-0.1c-0.3,0-0.6-0.1-0.8-0.1
	c-0.4-0.1-0.8-0.1-1.2-0.2c-0.2,0-0.5-0.1-0.7-0.1c-0.3,0-0.6-0.1-0.9-0.1c-0.2,0-0.4-0.1-0.6-0.1c-0.6-0.1-1.1-0.2-1.7-0.3
	c-0.1,0-0.3,0-0.4-0.1c-0.2,0-0.4-0.1-0.6-0.1c-4.9-0.9-10-2-14.7-3.3c-0.7-0.2-1.3-0.4-2-0.5c-1.3-0.4-2.6-0.8-3.8-1.1l-1.8-0.6
	h-0.1c-1.8-0.6-3.4-1.2-4.9-1.9c0,0-0.1,0-0.1-0.1c-0.5-0.2-0.9-0.4-1.4-0.6h-0.1c-0.5-0.2-0.9-0.5-1.3-0.7
	c-0.4-0.2-0.7-0.4-1.1-0.6c0,0-0.1,0-0.1-0.1c-0.1,0-0.1-0.1-0.2-0.1c-0.1-0.1-0.2-0.2-0.4-0.2l-0.1-0.1c-0.1-0.1-0.2-0.2-0.3-0.2
	c-0.1-0.1-0.2-0.1-0.3-0.2c-0.2-0.1-0.4-0.3-0.5-0.4l-0.1-0.1c-0.2-0.1-0.3-0.3-0.5-0.4c-0.1-0.1-0.1-0.1-0.1-0.2l-0.3-0.3
	c0,0-0.1-0.1-0.1-0.2c-0.1-0.1-0.2-0.2-0.2-0.3s-0.1-0.1-0.1-0.2c-0.1-0.1-0.1-0.2-0.2-0.3c0-0.1-0.1-0.1-0.1-0.2
	c-0.1-0.1-0.1-0.2-0.1-0.3s0-0.1-0.1-0.2c0-0.1-0.1-0.3-0.1-0.5c0-0.3-0.1-0.6-0.1-0.9v-1.3c0-0.2,0.1-0.4,0.1-0.6
	c0-0.1,0.1-0.3,0.1-0.4c0-0.2,0.1-0.4,0.2-0.6c0-0.1,0.1-0.3,0.1-0.5c0.1-0.2,0.1-0.4,0.2-0.6c0.1-0.2,0.1-0.3,0.2-0.5
	s0.2-0.4,0.2-0.5l0.3-0.6c0.1-0.1,0.2-0.3,0.2-0.4c0.1-0.2,0.3-0.5,0.4-0.7v-0.1c3.8-6.1,12.3-13.1,25.5-16.8
	c0.3-3.2,1.7-7.2,4.4-11.3c-4.8-0.6-8.7-1.1-10.9-1.2c-7.2,2-14.3,3.9-19.7,5.4c-3.9,1.1-6.9,2-8.3,2.6c-1.1,0.4-3,1-5.5,1.6
	c-13.9,3.4-46.1,8.5-49.7,1.8c-0.1-0.3-0.3-0.5-0.4-0.8c0-0.1,0-0.2-0.1-0.2c-0.1-0.2-0.1-0.5-0.2-0.7c0-0.1,0-0.2-0.1-0.3
	c0-0.2-0.1-0.5-0.1-0.8v-1.5c0-0.3,0-0.7,0.1-1.1v-0.2c0.1-0.9,0.3-1.8,0.5-2.8v-0.1c0.1-0.4,0.3-0.9,0.4-1.4v-0.1
	c2.7-8,10.8-18.4,26-25.6c0,0,0-0.1,0.1-0.1c0.2-0.4,0.3-0.8,0.5-1.2c0-0.1,0-0.1,0.1-0.2c1.4-2.6,3.7-5.4,7.1-8.1
	c-7.2,2.3-12.9,4.1-15.1,5.1c-1.6,0.7-5.2,1.8-9.8,3c-16.4,4.2-46.2,9.5-50.1,2.9c-0.1-0.2-0.3-0.5-0.4-0.8v-0.1
	c-0.1-0.2-0.2-0.5-0.3-0.7c0-0.1-0.1-0.2-0.1-0.3c-0.1-0.2-0.1-0.4-0.1-0.6c0-0.2,0-0.3-0.1-0.5c0-0.2,0-0.4-0.1-0.5v-2.3
	c0-0.3,0.1-0.6,0.1-0.9v-0.4c0-0.3,0.1-0.6,0.2-0.9v-0.2c2.2-11.4,14.6-28.9,43.4-37.4c4.6-1.3,22.4-7.8,35.6-12.9
	c4-2.7,9.2-5.2,15.4-6.8c3.8-2.5,8.6-6.4,13.4-10.5c-2.3-0.4-4.7-0.8-7.2-1.3c-2.8,2.3-5.5,4.5-8,6.5c-4.9,3.7-30.4,13.1-47.6,19.5
	c-7.1,2.7-12.7,4.8-14.8,5.9c-2.8,1.4-11.4,4.3-21.3,6.8c-1.9,0.5-3.8,1-5.8,1.4c-9.4,2.2-19,3.7-25.5,3.4h-0.1
	c-0.3,0-0.6-0.1-0.9-0.1h-0.7c-0.2,0-0.3,0-0.4-0.1h-0.1c-1-0.2-2-0.4-2.7-0.8c-0.9-0.4-1.5-0.9-2-1.5c-0.1-0.1-0.1-0.2-0.2-0.3
	C651.9,807.376,651.9,807.276,651.8,807.176L651.8,807.176z M860.2,878.176c11.9,0.4,26.1,0.6,32.4,0.4c5.2-0.2,16-3.7,25.8-7.2
	c6.7-2.4,12.9-4.7,16.7-6c-2.2-1.5-4.5-3.1-6.6-4.7c-13.8,3.5-29.4,7.7-43.1,10.7c-2.3,0.5-4.5,1-6.6,1.4h-0.1c-1,0.2-2,0.4-2.9,0.6
	c-0.1,0-0.2,0-0.3,0.1c-1,0.2-2,0.4-2.9,0.5c-0.5,0.1-1.1,0.1-1.8,0.1c-4.8,1.8-8.7,3.3-10.5,4.2
	C860.1,878.176,860.2,878.176,860.2,878.176L860.2,878.176z M1054.9,666.576h-0.8l-8.5,9.8l6.9-3.2
	C1053.2,670.776,1054,668.476,1054.9,666.576z M1077.6,651.376l3.8-1.7c0.8-2.2,1.7-4.1,2.7-5.9L1077.6,651.376L1077.6,651.376z
	 M806.7,823.376h0.2c0.5-0.2,0.9-0.4,1.3-0.5c2.1-0.9,5.2-2.8,8.5-5.2c-5-0.4-9.2-0.7-11.9-0.8c-2.6,1.4-7.6,3.3-13.9,5.5
	C795.8,822.276,801.1,822.576,806.7,823.376L806.7,823.376z"/>
<g id="left">
	<path fill="#F5D9B3" d="M890.1,631.576c0,0-25,23.9-38.1,29.1c-17.1,6.7-47,21.6-67.1,28.6c-7.5,2.7-54.4,3.1-61.8,4.2
		c-7.4,1.1-52.1-0.5-54.5-9.2c-2.3-8.1,12.7-29.6,48.9-30.4c6-0.2,36.7-2.8,46.5-4.3c8.6-1.4,33.2-15,39.3-17.5
		C803.2,631.976,865.7,588.376,890.1,631.576z"/>
	<path opacity="0.1" enable-background="new    " d="M668.7,684.176c2.4,8.7,47.1,10.3,54.5,9.2s54.3-1.6,61.8-4.2
		c20.1-7.1,49.9-21.9,67.1-28.6c13.1-5.2,38.1-29.1,38.1-29.1c-1.7-3-3.6-5.6-5.6-7.8c-8.7,7.2-28.6,23.7-32.6,26.5
		c-5.2,3.7-65.5,29.6-71.6,31.8c-6,2.2-32.1,4.9-69.4,3.1s-39.9-10.4-39.9-10.4C668.8,678.376,668,681.876,668.7,684.176
		L668.7,684.176z"/>
	<path fill="#F5D9B3" d="M615.4,599.676c0.5,1.3,2,2.4,4.2,3.3c0.1,0,0.3,0.1,0.4,0.2h0.2c0.4,0.1,0.9,0.3,1.3,0.4h0.1
		c7.4,2.2,20.2,2.7,31.5,2.3c10.2-0.2,19.2-1.1,22.3-1.8c7.9-1.9,58.6-7.1,66.5-10.7c21-9.6,52-28.6,69.8-37.7
		c13.7-6.9,38.4-35.2,38.4-35.2c-30.7-44.4-94.1,9.2-94.1,9.2c-6.2,3.4-31.5,20.5-40.8,22.8c-10.5,2.6-43.3,8.6-49.9,9.3
		C626.2,566.476,612.1,591.076,615.4,599.676L615.4,599.676z"/>
	<path opacity="0.1" enable-background="new    " d="M615.4,599.676c0.5,1.3,2,2.4,4.2,3.3h0.1c0,0,0.3,0.1,0.4,0.2h0.2
		c0.4,0.2,0.9,0.3,1.3,0.4h0.1c7.4,2.2,20.2,2.7,31.5,2.3c10.2-0.2,19.2-1.1,22.3-1.8c7.9-1.9,58.6-7.1,66.5-10.7
		c21-9.6,52-28.6,69.8-37.7c13.7-6.9,38.4-35.2,38.4-35.2c-1.5-2.1-3.1-4.1-4.6-5.8c-9.9,9.9-29.2,29.3-32.1,31.4
		c-3.9,2.9-66.1,38.5-73.8,41.4c-7.9,2.9-79.1,12.2-99.7,11.8c-20.7-0.5-24.1-6.6-24.1-6.6
		C614.7,595.676,614.7,597.976,615.4,599.676L615.4,599.676z"/>
	<path fill="#FFE2BA" d="M796,628.776c-0.5-0.4-1.1-1-1.6-1.4C794.9,627.776,795.5,628.376,796,628.776z"/>
	
		<ellipse transform="matrix(0.8072 -0.5902 0.5902 0.8072 -87.3906 682.3346)" fill="#58595B" cx="1000.937" cy="474.959" rx="38.098" ry="92.696"/>
	
		<ellipse transform="matrix(0.8072 -0.5902 0.5902 0.8072 -105.0569 669.6423)" fill="#E6E7E8" cx="972.672" cy="495.66" rx="34.898" ry="84.896"/>
	<path fill="#F5D9B3" d="M874.9,575.676c0,0-26.2,27-40.3,33.1c-18.3,8-50.2,25.3-71.7,33.8c-8,3.2-59,5.6-67,7.1
		c-8,1.4-56.6,1.6-59.7-7.8c-2.8-8.8,12.6-32.6,51.9-35c6.5-0.3,39.7-4.6,50.3-6.5c9.4-1.8,35.6-17.5,42-20.6
		C780.5,579.576,846.7,529.776,874.9,575.676L874.9,575.676z"/>
	<path opacity="0.1" enable-background="new    " d="M636.4,641.876c3,9.3,51.6,9.3,59.7,7.8c8-1.4,58.9-3.9,67-7.1
		c21.6-8.5,53.4-25.8,71.7-33.8c14-6.1,40.3-33.1,40.3-33.1c-1.8-3-3.8-5.5-5.9-7.7c-14.4,12.7-39.1,34.4-40.5,35.3
		c-1.9,1.3-61,30.4-68.4,32.4s-70.1,6.9-94.7,6c-24.6-0.9-28-8.1-28-8.1C636.1,636.876,635.7,639.776,636.4,641.876L636.4,641.876z"
		/>
	<path fill="#F5D9B3" d="M971,402.776l-69.8,52.2c-46.7,34.9-38,107.3,15.6,130.3h0.1c24.9,10.7,53.6,7.3,75.4-9.1l69.7-52.3
		c46.6-35,37.9-107.2-15.7-130.2C1021.3,383.076,992.6,386.476,971,402.776z"/>
	<path fill="#F5D9B3" d="M943.8,473.476c0,0-51-47.5-120.3,7.2c-34.2,27-51.4,37.2-62.3,44.8c-26.7,18.8,3.3,95.8,45.8,115.6
		c30.6,14.3,73.5,48.3,117.6,21.7c10.6-6.4,34.5-22.6,58.6-46.2C1069.3,532.276,943.8,473.476,943.8,473.476L943.8,473.476z"/>
	<path fill="#F5D9B3" d="M755.2,707.776c-0.2,1.5-0.2,2.8,0.1,3.8c2.7,7.1,40.1,5,46.2,3.5c6.1-1.5,45.1-5.5,51.2-8.2
		c2.8-1.3,5.8-2.8,8.9-4.4c15.1-7.8,33.4-18.9,44.8-24.5c10.6-5.3,31.8-24,31.8-24c-23.6-34.1-74.7,3.9-74.7,3.9
		c-4.8,2.6-24.3,15.7-31.4,17.6c-8.1,2-33.3,6.6-38.4,7.1C768.4,685.476,756.7,699.576,755.2,707.776L755.2,707.776z"/>
	<path opacity="0.1" enable-background="new    " d="M755.5,711.576c2.7,7.1,40.1,5,46.2,3.5c6.1-1.5,45.1-5.5,51.2-8.2
		c2.8-1.3,5.8-2.8,8.9-4.4c15.1-7.8,33.4-18.9,44.8-24.5c5.2-2.7,13.2-8.7,19.9-14s12-10,12-10c12.1-8.5,28.5-21.1,45-37.3
		c20.8-20.4,29.2-39.3,30-56.3l48.5-36.4c21.4-16,31-39.7,30.3-63.1c-1-27.6-16.8-54.7-45.9-67.2c-24.8-10.7-53.5-7.2-75.3,9
		l-41.9,31.4c17.6,3.7,41.8,22.6,62.1,50.4c13.6,18.5,22.8,37.5,27,53.4c-2.8,1.9-5.2,3.6-6.8,4.8c-8.4,6.6-4.1,4.4-15.3,33.6
		c-11,29.2-83.4,85.5-90,91.5s-52,30.7-56.3,32.7s-14.8,4.5-43.6,7.6s-45.5-0.4-49.8-3.7c-0.6,1.3-1,2.4-1.1,3.6
		C755,709.276,755.1,710.576,755.5,711.576L755.5,711.576z"/>
	<path fill="#FFFFFF" d="M1000.9,474.976c-27.7-37.9-62.7-59.4-78.3-48l508.8-372.1c15.6-11.3,50.6,10.3,78.2,48
		c27.6,37.8,37.5,77.6,22,89.1l-508.8,372.1C1038.5,552.776,1028.6,512.876,1000.9,474.976L1000.9,474.976z"/>
	<path opacity="0.1" enable-background="new    " d="M952.4,405.276c19.1,4.9,44.5,25.2,65.9,54.4c23.5,32.2,35.3,65.8,31.2,84.9
		l482.2-352.7c15.5-11.5,5.6-51.4-22-89.1c-27.6-37.8-62.7-59.2-78.2-48L952.4,405.276L952.4,405.276z"/>
	<path fill="#414042" d="M1031.8,452.476c-30.2-41.4-68.5-64.8-85.5-52.3L1489,3.276c17-12.3,55.2,11.1,85.4,52.4
		c30.2,41.3,40.9,84.7,24,97.2l-542.7,396.9C1072.7,537.376,1062,493.776,1031.8,452.476L1031.8,452.476z"/>
	<path opacity="0.1" enable-background="new    " d="M872.9,532.776c8,2.4,16.9,2.9,27,0.3c6.3-2.5,13-6,20.1-10.6
		c22-14.5,29.5-30.9,28.1-46.4c-1.3-13.2-9.1-25.7-20.1-35.4c-1.1-1-2.3-2-3.5-3l-23.1,17.2
		C875.4,474.276,866.5,505.276,872.9,532.776L872.9,532.776z"/>
	<path fill="#FFE2BA" d="M931.9,451.576c-13-11.6-30.1-17.5-47.5-17.1c-14.1,0.3-39.3,1.6-51.9,6.7c-21.1,8.5-41.5,11.8-51.8,14.9
		c-8.5,2.7-45.8,20.9-51.5,21.2c-5.6,0.3-38.4,4.5-23.2,23.6c16.8,21,61.2,5.2,93.9-5.3c35.9-11.5,57.1,70.5,125.2,25.7
		C960.1,498.376,952.1,469.576,931.9,451.576L931.9,451.576z"/>
	<path fill="#F5D9B3" d="M706,500.876c2.7,3.4,6.1,5.8,10.1,7.5c20.3,8.5,55.1-3.4,82.3-12.2c0.6-0.2,1.1-0.4,1.6-0.6
		c31-10,51.1,49.9,99.9,37.5c7.6-1.9,16-5.7,25.3-11.8c21.6-14.2,26.8-30.6,22.8-45.3c-2.4-9.1-8.4-17.5-16.1-24.5
		c-13-11.6-30.1-17.5-47.5-17.1c-14.1,0.3-39.3,1.6-51.9,6.7c-21.1,8.5-41.5,11.8-51.8,14.9c-8.5,2.7-45.8,20.9-51.5,21.2
		C723.6,477.676,690.8,481.776,706,500.876L706,500.876z"/>
	<path opacity="0.1" enable-background="new    " d="M706,500.876c2.7,3.4,6.1,5.8,10.1,7.5c0.1,0,0.3,0.2,0.5,0.2s0.4,0.2,0.7,0.3
		c20.4,7.7,54.5-3.9,81.2-12.6c0.6-0.2,1.1-0.4,1.6-0.6c30.4-9.7,50.2,47.4,96.9,38.1h0.1c0.3-0.1,0.7-0.1,1.1-0.3
		c0.7-0.2,1.2-0.2,1.7-0.4c7.6-1.9,16-5.7,25.3-11.8c0.5-0.3,0.9-0.6,1.3-0.8l0.7-0.4c0.4-0.2,0.6-0.5,1-0.7
		c0.2-0.1,0.5-0.3,0.6-0.5c2.2-1.6,4.4-3.3,6.2-5l0.8-0.7c1-0.9,1.9-1.9,2.8-2.8c-36.4,19.6-48.7,16.3-62.8,13.9
		c-14-2.4-50.2-37.9-67.5-36.4c-17.3,1.3-62.5,19.6-85.1,17c-11.4-1.4-20.7-13.2-21-13.6C701.8,493.776,702.9,496.976,706,500.876
		L706,500.876z"/>
	<path id="SHADOW_RIGHT" opacity="0.1" enable-background="new    " d="M812.7,620.376c27.9,26.1,74.7,41.6,116.5,41.2
		c4.2-3.4,7.5-6.2,8.7-7.2c0.3-0.2,0.5-0.4,0.5-0.4l0.1-0.1c0.7-0.4,1.4-1,2.1-1.5c0.1-0.1,0.2-0.1,0.3-0.2
		c6.3-4.4,13.5-9.9,21.2-16.3l0.2-0.1c0.9-0.8,1.8-1.5,2.8-2.3l0.1-0.1c1-0.8,1.9-1.7,2.9-2.5v-0.1c0.9-0.8,1.8-1.5,2.7-2.4
		c0.1-0.2,0.4-0.3,0.5-0.5c0.9-0.8,1.8-1.5,2.6-2.4c0-0.1,0.1-0.2,0.2-0.1c0.9-0.8,1.8-1.7,2.8-2.5c0.3-0.2,0.4-0.4,0.6-0.6
		c0.8-0.6,1.4-1.3,2.1-2.1c0.3-0.2,0.5-0.5,0.8-0.8c0.8-0.8,1.7-1.6,2.5-2.4c0.1-0.1,0.1-0.2,0.3-0.2l2-2c0.1-0.1,0.1-0.2,0.3-0.2
		c0.5-0.6,1.1-1.1,1.6-1.7c0.1-0.2,0.4-0.3,0.5-0.5c0.4-0.4,0.8-0.9,1.2-1.4c0.2-0.3,0.4-0.4,0.6-0.7c0.4-0.4,0.8-0.8,1.1-1.3
		c0.3-0.2,0.4-0.5,0.7-0.7c0.4-0.4,0.7-0.8,1-1.2c0.3-0.2,0.4-0.5,0.6-0.8c0.3-0.3,0.7-0.8,1-1.1c0.2-0.3,0.4-0.5,0.6-0.8
		c0.3-0.3,0.6-0.8,0.9-1.1c0.2-0.3,0.4-0.5,0.6-0.8c0.3-0.3,0.6-0.7,0.9-1.1c0.2-0.3,0.4-0.5,0.6-0.8c0.3-0.3,0.6-0.7,0.8-1.2
		c0.2-0.3,0.3-0.5,0.6-0.7c0.3-0.3,0.5-0.7,0.8-1.2c0.2-0.3,0.3-0.5,0.5-0.7c0.3-0.3,0.5-0.7,0.8-1.1c0.2-0.3,0.3-0.5,0.5-0.7
		c0.3-0.3,0.5-0.7,0.7-1.1c0.2-0.3,0.3-0.4,0.5-0.7c0.2-0.4,0.5-0.7,0.7-1.1c0.2-0.3,0.3-0.4,0.5-0.7c0.2-0.4,0.5-0.7,0.7-1.1
		c0.2-0.3,0.3-0.4,0.4-0.7c0.2-0.3,0.3-0.5,0.5-0.9c-3.7-7.3-9.4-14.7-17-21.9c-36.9-34.4-106.5-50.5-154.7-35.8
		C785,545.776,775.7,585.976,812.7,620.376L812.7,620.376z"/>
</g>
<g id="right">
	
		<ellipse transform="matrix(0.9122 -0.4098 0.4098 0.9122 -142.1814 514.8946)" fill="#58595B" cx="1130.219" cy="589.173" rx="38.101" ry="92.702"/>
	
		<ellipse transform="matrix(0.9122 -0.4098 0.4098 0.9122 -150.8839 503.0865)" fill="#E6E7E8" cx="1098.318" cy="603.573" rx="34.901" ry="84.902"/>
	<path fill="#FFE2BA" d="M1115.8,512.376l-79.1,36.6c-52.9,24.5-59.5,97-11.9,130.6l0.1,0.1c22.2,15.6,51,18.2,75.6,6.8l78.9-36.7
		c52.8-24.5,59.4-97,11.7-130.6C1169.1,503.676,1140.4,501.076,1115.8,512.376L1115.8,512.376z M1031.2,743.776
		c0,0-30.1,22.6-44.9,26.5c-19.3,5.1-53.5,17.3-76.1,22.3c-8.5,1.9-59.1-3.6-67.3-3.4c-8.1,0.2-56.2-7.2-57.7-16.9
		c-1.4-9.1,17.5-30.3,56.7-26.5c6.5,0.6,39.9,1.7,50.7,1.3c9.5-0.4,37.8-11.9,44.7-13.9
		C937.3,733.176,1010.4,694.076,1031.2,743.776L1031.2,743.776z"/>
	<path fill="#FFE2BA" d="M785.3,772.276c0.2,1.4,1.4,2.8,3.4,4.1c0.1,0.1,0.2,0.2,0.4,0.2c0.1,0,0.1,0.1,0.2,0.1
		c0.4,0.2,0.8,0.5,1.2,0.7h0.1c6.8,3.7,19.2,6.8,30.3,8.9c10,1.9,19.1,2.9,22.2,2.8c8.1-0.2,58.8,5.2,67.3,3.4
		c22.6-5,56.8-17.3,76.1-22.3c14.8-3.9,44.9-26.4,44.9-26.4c-20.8-49.7-94-10.6-94-10.6c-6.8,2-35.1,13.5-44.7,13.9
		c-10.7,0.4-44.2-0.6-50.7-1.3C802.8,741.976,783.8,763.276,785.3,772.276L785.3,772.276z"/>
	<path fill="#FFE2BA" d="M995.9,700.176c0,0-31.3,20.9-46.3,24c-19.5,4-54.3,14.4-77.2,18.2c-8.5,1.4-58.9-6.8-67-7
		s-55.7-10.2-56.7-20c-0.9-9.1,19.1-29.3,58-23.4c6.5,1,39.8,3.8,50.6,4c9.5,0.2,38.4-9.8,45.3-11.4
		C902.6,684.476,977.7,649.376,995.9,700.176L995.9,700.176z"/>
	<path fill="#FFE2BA" d="M975.8,643.576c0,0-27.7,20.8-41.3,24.3c-17.7,4.7-49.2,15.9-70,20.5c-7.8,1.7-54.4-3.3-61.9-3.1
		s-51.7-6.6-53.1-15.6c-1.3-8.3,16.1-27.9,52.1-24.4c6,0.6,36.7,1.5,46.6,1.2c8.8-0.3,34.8-10.9,41.1-12.8
		C889.4,633.776,956.7,597.776,975.8,643.576L975.8,643.576z"/>
	<path fill="#FFE2BA" d="M945.8,602.876c0,0-23.2,17.4-34.5,20.4c-14.8,3.9-41.2,13.3-58.5,17.2c-6.5,1.5-45.5-2.8-51.8-2.6
		s-43.3-5.6-44.4-13c-1.1-7,13.5-23.3,43.6-20.4c5,0.5,30.7,1.3,39,1c7.3-0.3,29.1-9.1,34.4-10.7
		C873.5,594.776,929.7,564.676,945.8,602.876z"/>
	<path fill="#FFE2BA" d="M757.1,621.076c-0.6,1.4-0.8,2.7-0.6,3.8c1.2,7.5,38.2,13.2,44.4,13c6.3-0.2,45.3,4,51.8,2.6
		c3-0.7,6.2-1.5,9.7-2.4c16.4-4.5,36.6-11.5,48.9-14.7c11.4-3,34.5-20.4,34.5-20.4c-16-38.3-72.3-8.2-72.3-8.2
		c-5.3,1.5-27,10.4-34.4,10.7c-8.3,0.3-34-0.5-39-1C774.6,601.976,760.2,613.376,757.1,621.076L757.1,621.076z"/>
	<path fill="#FFE2BA" d="M1074.4,575.976c0,0-40-57.1-119.2-17.9c-39,19.3-58,25.7-70.2,31c-30,12.8-16.6,94.4,20.8,122.6
		c37.5,28.1,73.7,71.5,175.3,6.8S1074.4,575.976,1074.4,575.976L1074.4,575.976z"/>
	<path fill="#FFFFFF" d="M788.7,776.376c0.1,0.1,0.2,0.2,0.4,0.2c-0.1,0-0.1-0.1-0.2-0.1S788.7,776.476,788.7,776.376L788.7,776.376
		z"/>
	<path opacity="0.1" enable-background="new    " d="M787.4,764.676c0,0,2.4,7.8,28.9,12.7s75,7.6,94.9,4.1
		c14.7-2.6,61.4-18.6,91.5-33.1c6.7-10.2,14.4-19.4,22-26.4c18.1-16.4-27.7-64.8,30.5-104.8c42-28.8,67,4.4,69.4,37
		c0.4,20.7-10.4,43.1-43.5,64.1c-18.8,12-35.4,20.2-50.2,25.6c-0.5,0.4-1.8,1.3-3.6,2.6l-0.9,0.6c-0.1,0.1-0.3,0.2-0.4,0.3
		s-0.2,0.2-0.3,0.2c-0.3,0.2-0.6,0.4-0.8,0.6c-0.1,0-0.1,0.1-0.2,0.1c-0.3,0.2-0.7,0.5-1,0.7c-9.9,6.9-27.2,18.3-37.3,21
		c-19.3,5.1-53.5,17.3-76.1,22.3c-8.5,1.9-59.1-3.6-67.3-3.4c-3.1,0.1-12.2-1-22.2-2.8c-11.1-2.1-23.5-5.2-30.3-8.9h-0.1
		c-0.4-0.2-0.8-0.5-1.2-0.7c-0.1,0-0.1-0.1-0.2-0.1c-0.1-0.1-0.2-0.2-0.4-0.2c-1.9-1.3-3.1-2.7-3.4-4.1
		C784.9,770.276,785.7,767.576,787.4,764.676L787.4,764.676z M757.1,621.076c-0.6,1.4-0.8,2.7-0.6,3.8c1.2,7.5,38.2,13.2,44.4,13
		c6.3-0.2,45.3,4,51.8,2.6c3-0.7,6.2-1.5,9.7-2.4c2.2-0.6,4.4-1.2,6.7-1.9c-0.3-2.9-0.4-5.7-0.5-8.4c-7.9,1.8-22,5.7-29.8,5.6
		c-15-0.2-57.1-4.3-69.5-6.6C759.2,624.776,758.1,622.876,757.1,621.076L757.1,621.076z"/>
	<path fill="#FFE2BA" d="M1135.8,670.176c0,0-11.9,45.5-25.9,59.2c-15.2,15-26.1,34.6-34.5,41.5c-8.3,6.9-42.8,28.5-45.3,33.6
		s-11.2,42-29.2,16s8.5-65.7,35.1-92.4c26.6-26.7-36-76.4,32.3-120.8C1121.8,572.476,1147.4,634.476,1135.8,670.176z"/>
	<path opacity="0.1" enable-background="new    " d="M749.6,669.776c1.4,8.9,45.6,15.8,53.1,15.6s54.1,4.8,61.9,3.1
		c5.6-1.2,11.9-3,18.6-4.9c-1.6-3.1-3.1-6.2-4.5-9.4c-6.7,2.1-13.9,4.2-16.9,4.5c-6.3,0.6-67.6,0.2-82.1-2.7
		c-14.7-2.9-25.6-6.6-28.3-12.8C749.9,665.676,749.3,667.976,749.6,669.776L749.6,669.776z M748.7,715.276c1,9.8,48.6,19.8,56.7,20
		c8.1,0.2,58.5,8.4,67,7c15.9-2.7,37.7-8.5,56-13.2c-4.1-3-8-6.1-11.9-9.2c-15.2,4.5-35.4,10.3-41.5,10.7c-10.2,0.7-66.8-4.5-73-5.6
		c-6.3-1.1-41.9-3.7-52-15.3C749,711.876,748.5,713.776,748.7,715.276L748.7,715.276z"/>
	<path fill="#FFE2BA" d="M892.7,698.376c-0.4-0.6-0.9-1.1-1.3-1.7C891.8,697.276,892.3,697.876,892.7,698.376z"/>
	<path fill="#FFFFFF" d="M1010.4,824.476c0,0,1.9,2.9,6.3,4.1c7.6-4.3,11.8-20.9,13.4-24.2c0,0-9.7-4-12.8,2
		C1014.1,812.376,1010.4,824.476,1010.4,824.476L1010.4,824.476z M1130.1,589.276c-19.2-42.8-49.1-71.1-66.7-63.2l536.5-241.3
		c17.6-7.8,47.4,20.5,66.6,63.2s20.5,83.7,3,91.7l-536.5,241.4C1150.6,673.176,1149.3,632.076,1130.1,589.276z"/>
	<path opacity="0.1" enable-background="new    " d="M1020.9,795.776c11.4,0.1,32.2-24,43.5-33.3s35.8-43.4,41.5-51.6
		c4.3-6.1,16.9-50,23-71.8c-2.3-13.3-6.8-28.1-13.6-43.2c-13.4-29.9-32.1-52.8-48.1-61.1l48.6-22.5c18.7-8.7,39.9-9.2,58.7-2.1
		c5.8,2.2,11.5,5.2,16.7,8.9c47.6,33.6,41.1,106.1-11.7,130.6l-43.7,20.3c-0.1,0.3-11.9,45.5-25.9,59.2
		c-15.2,15-26.1,34.6-34.5,41.5s-42.8,28.5-45.3,33.6s-11.2,42-29.2,16c-1.2-1.7-2.2-3.5-3-5.3c2.2,1.8,4.7,4,7.2,5.4
		C1009.4,822.876,1009.6,795.776,1020.9,795.776L1020.9,795.776z"/>
	<path fill="#FFFFFF" d="M1130.1,589.276c-19.2-42.8-49.1-71.1-66.7-63.2l536.5-241.3c17.6-7.8,47.4,20.5,66.6,63.2
		s20.5,83.7,3,91.7l-536.5,241.4C1150.6,673.176,1149.3,632.076,1130.1,589.276z"/>
	<path opacity="0.1" enable-background="new    " d="M1097,511.076c17.6,8.8,38.3,33.9,53.2,67c16.3,36.4,20.8,71.7,12.9,89.6
		l506.4-227.8c17.5-8,16.2-49-3-91.7s-49-71-66.6-63.2L1097,511.076z"/>
	<path fill="#414042" d="M1164.9,573.676c-21-46.7-53.5-77.6-72.7-68.9l574.8-258.5c19.2-8.5,51.7,22.4,72.6,69s22.4,91.4,3.3,100.1
		l-574.8,258.5C1187.3,665.176,1185.8,620.376,1164.9,573.676L1164.9,573.676z"/>
	<path opacity="0.1" enable-background="new    " d="M1036.7,548.976c0,0,0.8,0.3,2.4,1c23.1,8.9,34.9,25.4,35.3,26
		c0,0-9.3-17.8-31.3-30L1036.7,548.976z"/>
	<path opacity="0.2" enable-background="new    " d="M1168.1,673.876l574.8-258.5c8.1-3.7,12.5-13.9,13.3-28.1
		c-78.4,35.4-425.6,191.5-574.6,251.5C1182,656.476,1177.6,669.576,1168.1,673.876L1168.1,673.876z"/>
	<path id="SHADOW_LEFT" opacity="0.1" enable-background="new    " d="M869,636.076c0.1,1.6,0.3,3.1,0.5,4.7
		c-8.3,2.9-16.9,5.6-21.2,5.7c-6.4,0.2-21.6-0.1-33.1-0.5c5.4,5.1,11.9,9.9,19.5,14.3c51.6,29.8,136,29.8,187.5,0
		c51.6-29.8,51.6-78.5,0-108.3c-5-2.9-10.2-5.4-15.7-7.8c-14.7,0.3-31.8,4.1-51.3,13.7c-39,19.3-58,25.7-70.2,31
		c-1.3,0.6-2.6,1.3-3.7,2.1c-4.8,2-7.8,3.6-7.8,3.6c-3.4,1-13.4,4.9-22.2,7.8c-5,1.6-9.5,2.8-12.2,2.9c-8.3,0.3-34-0.5-39-1h-0.6
		c-0.6-0.1-1.3-0.1-1.9-0.1c-0.4,0-0.8,0-1.2-0.1h-0.3c-0.6,11.6,3.4,23.3,11.9,34c13.4,0.9,39.4,3.4,44.7,2.3
		c0.3-0.1,0.7-0.2,1-0.2c0.3-0.1,0.5-0.1,0.8-0.2l1.2-0.3c0.3-0.1,0.6-0.1,0.8-0.2l1.2-0.3c0.5-0.1,1-0.3,1.5-0.4l1.2-0.3
		c0.5-0.1,1-0.3,1.5-0.4c0.1,0,0.2-0.1,0.3-0.1s0.2-0.1,0.3-0.1c0.8-0.2,1.7-0.5,2.6-0.7l1.2-0.3
		C867.3,636.676,868.1,636.376,869,636.076L869,636.076z"/>
</g>
</svg>
