<?xml version="1.0" encoding="utf-8"?>
<!-- Generator: Adobe Illustrator 21.0.0, SVG Export Plug-In . SVG Version: 6.00 Build 0)  -->
<svg version="1.1" xmlns="http://www.w3.org/2000/svg" xmlns:xlink="http://www.w3.org/1999/xlink" x="0px" y="0px"
	 viewBox="0 0 652.892 197.816" enable-background="new 0 0 652.892 197.816" xml:space="preserve">
<g id="Layer_2">
</g>
<g id="Layer_1">
	<defs>
		<filter id="Adobe_OpacityMaskFilter" filterUnits="userSpaceOnUse" x="45.605" y="45.59" width="106.611" height="106.611">
			<feColorMatrix  type="matrix" values="1 0 0 0 0  0 1 0 0 0  0 0 1 0 0  0 0 0 1 0"/>
		</filter>
	</defs>
	<mask maskUnits="userSpaceOnUse" x="45.605" y="45.59" width="106.611" height="106.611" id="SVGID_1_">
		<g filter="url(#Adobe_OpacityMaskFilter)">
			<rect x="-40.232" y="-54.377" fill="#FFFFFF" width="262.57" height="291.424"/>
			<defs>
				<filter id="Adobe_OpacityMaskFilter_1_" filterUnits="userSpaceOnUse" x="66.591" y="66.576" width="64.639" height="64.639">
					<feFlood  style="flood-color:white;flood-opacity:1" result="back"/>
					<feBlend  in="SourceGraphic" in2="back" mode="normal"/>
				</filter>
			</defs>
			<mask maskUnits="userSpaceOnUse" x="66.591" y="66.576" width="64.639" height="64.639" id="SVGID_1_">
				<g filter="url(#Adobe_OpacityMaskFilter_1_)">
				</g>
			</mask>
			<circle mask="url(#SVGID_1_)" cx="98.91" cy="98.896" r="32.32"/>
		</g>
	</mask>
	<g opacity="0.75">
		<circle fill="#FFFFFF" cx="98.91" cy="98.896" r="53.306"/>
		<defs>
			<filter id="Adobe_OpacityMaskFilter_2_" filterUnits="userSpaceOnUse" x="45.605" y="45.59" width="106.611" height="106.611">
				<feFlood  style="flood-color:white;flood-opacity:1" result="back"/>
				<feBlend  in="SourceGraphic" in2="back" mode="normal"/>
			</filter>
		</defs>
		<mask maskUnits="userSpaceOnUse" x="45.605" y="45.59" width="106.611" height="106.611" id="SVGID_2_">
			<g filter="url(#Adobe_OpacityMaskFilter_2_)">
				<defs>
					<filter id="Adobe_OpacityMaskFilter_3_" filterUnits="userSpaceOnUse" x="53.967" y="45.59" width="106.611" height="106.611">
						<feFlood  style="flood-color:white;flood-opacity:1" result="back"/>
						<feBlend  in="SourceGraphic" in2="back" mode="normal"/>
					</filter>
				</defs>
				<mask maskUnits="userSpaceOnUse" x="53.967" y="45.59" width="106.611" height="106.611" id="SVGID_2_">
					<g filter="url(#Adobe_OpacityMaskFilter_3_)">
					</g>
				</mask>
				<circle opacity="0.3" mask="url(#SVGID_2_)" cx="107.273" cy="98.896" r="53.306"/>
			</g>
		</mask>
		<circle fill="#939393" cx="98.91" cy="98.896" r="53.306"/>
	</g>
	<defs>
		<filter id="Adobe_OpacityMaskFilter_4_" filterUnits="userSpaceOnUse" x="0.048" y="0.033" width="197.725" height="197.725">
			<feFlood  style="flood-color:white;flood-opacity:1" result="back"/>
			<feBlend  in="SourceGraphic" in2="back" mode="normal"/>
		</filter>
	</defs>
	<mask maskUnits="userSpaceOnUse" x="0.048" y="0.033" width="197.725" height="197.725" id="SVGID_3_">
		<g filter="url(#Adobe_OpacityMaskFilter_4_)">
			<rect x="-30.884" y="-48.297" fill="#FFFFFF" width="266.236" height="267.802"/>
			<defs>
				<filter id="Adobe_OpacityMaskFilter_5_" filterUnits="userSpaceOnUse" x="134.321" y="6.032" width="35.781" height="35.781">
					<feFlood  style="flood-color:white;flood-opacity:1" result="back"/>
					<feBlend  in="SourceGraphic" in2="back" mode="normal"/>
				</filter>
			</defs>
			<mask maskUnits="userSpaceOnUse" x="134.321" y="6.032" width="35.781" height="35.781" id="SVGID_3_">
				<g filter="url(#Adobe_OpacityMaskFilter_5_)">
				</g>
			</mask>
			<circle mask="url(#SVGID_3_)" cx="152.212" cy="23.922" r="17.891"/>
		</g>
	</mask>
	<g opacity="0.72">
		<path fill="#434343" d="M98.91,6.033c51.287,0,92.863,41.576,92.863,92.863s-41.576,92.863-92.863,92.863
			S6.048,150.183,6.048,98.896S47.624,6.033,98.91,6.033 M98.91,0.033c-54.513,0-98.863,44.35-98.863,98.863
			s44.35,98.863,98.863,98.863s98.863-44.35,98.863-98.863S153.423,0.033,98.91,0.033L98.91,0.033z"/>
	</g>
	<g opacity="0.5">
		<circle fill="#FFFFFF" cx="98.91" cy="98.896" r="32.32"/>
		<defs>
			<filter id="Adobe_OpacityMaskFilter_6_" filterUnits="userSpaceOnUse" x="66.591" y="66.576" width="64.639" height="64.639">
				<feFlood  style="flood-color:white;flood-opacity:1" result="back"/>
				<feBlend  in="SourceGraphic" in2="back" mode="normal"/>
			</filter>
		</defs>
		<mask maskUnits="userSpaceOnUse" x="66.591" y="66.576" width="64.639" height="64.639" id="SVGID_4_">
			<g filter="url(#Adobe_OpacityMaskFilter_6_)">
				<defs>
					<filter id="Adobe_OpacityMaskFilter_7_" filterUnits="userSpaceOnUse" x="72.695" y="66.576" width="64.639" height="64.639">
						<feFlood  style="flood-color:white;flood-opacity:1" result="back"/>
						<feBlend  in="SourceGraphic" in2="back" mode="normal"/>
					</filter>
				</defs>
				<mask maskUnits="userSpaceOnUse" x="72.695" y="66.576" width="64.639" height="64.639" id="SVGID_4_">
					<g filter="url(#Adobe_OpacityMaskFilter_7_)">
					</g>
				</mask>
				<circle opacity="0.31" mask="url(#SVGID_4_)" cx="105.015" cy="98.896" r="32.32"/>
			</g>
		</mask>
		<circle fill="#434343" cx="98.91" cy="98.896" r="32.32"/>
	</g>
	<g opacity="0.75">
		<circle fill="#FFFFFF" cx="152.216" cy="23.924" r="17.891"/>
		<defs>
			<filter id="Adobe_OpacityMaskFilter_8_" filterUnits="userSpaceOnUse" x="134.325" y="6.033" width="35.781" height="35.781">
				<feFlood  style="flood-color:white;flood-opacity:1" result="back"/>
				<feBlend  in="SourceGraphic" in2="back" mode="normal"/>
			</filter>
		</defs>
		<mask maskUnits="userSpaceOnUse" x="134.325" y="6.033" width="35.781" height="35.781" id="SVGID_5_">
			<g filter="url(#Adobe_OpacityMaskFilter_8_)">
				<defs>
					<filter id="Adobe_OpacityMaskFilter_9_" filterUnits="userSpaceOnUse" x="139.2" y="6.033" width="35.781" height="35.781">
						<feFlood  style="flood-color:white;flood-opacity:1" result="back"/>
						<feBlend  in="SourceGraphic" in2="back" mode="normal"/>
					</filter>
				</defs>
				<mask maskUnits="userSpaceOnUse" x="139.2" y="6.033" width="35.781" height="35.781" id="SVGID_5_">
					<g filter="url(#Adobe_OpacityMaskFilter_9_)">
					</g>
				</mask>
				<circle opacity="0.3" mask="url(#SVGID_5_)" cx="157.091" cy="23.924" r="17.891"/>
			</g>
		</mask>
		<circle opacity="0.7" fill="#939393" cx="152.216" cy="23.924" r="17.891"/>
	</g>
	<text transform="matrix(1 0 0 1 244.4876 122.2865)" fill="#434343" font-family="'Roboto-Bold'" font-size="80px">Nebulae.co</text>
</g>
</svg>
